<svg width="14" height="18" viewBox="0 0 14 18" fill="none" xmlns="http://www.w3.org/2000/svg">
<path d="M12.8335 4.83335H10.3335V4.00002C10.3335 3.11596 9.9823 2.26812 9.35718 1.643C8.73206 1.01788 7.88421 0.666687 7.00016 0.666687C6.11611 0.666687 5.26826 1.01788 4.64314 1.643C4.01802 2.26812 3.66683 3.11596 3.66683 4.00002V4.83335H1.16683C0.945815 4.83335 0.733854 4.92115 0.577574 5.07743C0.421294 5.23371 0.333496 5.44567 0.333496 5.66669V14.8334C0.333496 15.4964 0.596888 16.1323 1.06573 16.6011C1.53457 17.07 2.17045 17.3334 2.8335 17.3334H11.1668C11.8299 17.3334 12.4658 17.07 12.9346 16.6011C13.4034 16.1323 13.6668 15.4964 13.6668 14.8334V5.66669C13.6668 5.44567 13.579 5.23371 13.4227 5.07743C13.2665 4.92115 13.0545 4.83335 12.8335 4.83335ZM5.33349 4.00002C5.33349 3.55799 5.50909 3.13407 5.82165 2.82151C6.13421 2.50895 6.55813 2.33335 7.00016 2.33335C7.44219 2.33335 7.86611 2.50895 8.17867 2.82151C8.49123 3.13407 8.66683 3.55799 8.66683 4.00002V4.83335H5.33349V4.00002ZM12.0002 14.8334C12.0002 15.0544 11.9124 15.2663 11.7561 15.4226C11.5998 15.5789 11.3878 15.6667 11.1668 15.6667H2.8335C2.61248 15.6667 2.40052 15.5789 2.24424 15.4226C2.08796 15.2663 2.00016 15.0544 2.00016 14.8334V6.50002H3.66683V7.33335C3.66683 7.55437 3.75463 7.76633 3.91091 7.92261C4.06719 8.07889 4.27915 8.16669 4.50016 8.16669C4.72117 8.16669 4.93314 8.07889 5.08942 7.92261C5.2457 7.76633 5.33349 7.55437 5.33349 7.33335V6.50002H8.66683V7.33335C8.66683 7.55437 8.75462 7.76633 8.9109 7.92261C9.06718 8.07889 9.27915 8.16669 9.50016 8.16669C9.72117 8.16669 9.93313 8.07889 10.0894 7.92261C10.2457 7.76633 10.3335 7.55437 10.3335 7.33335V6.50002H12.0002V14.8334Z" fill="#fff"/>
</svg>
