<?xml version="1.0" standalone="no"?>
<!DOCTYPE svg PUBLIC "-//W3C//DTD SVG 20010904//EN"
 "http://www.w3.org/TR/2001/REC-SVG-20010904/DTD/svg10.dtd">
<svg version="1.0" xmlns="http://www.w3.org/2000/svg"
 width="176.000000pt" height="176.000000pt" viewBox="0 0 176.000000 176.000000"
 preserveAspectRatio="xMidYMid meet">
<metadata>
Created by potrace 1.14, written by Peter Selinger 2001-2017
</metadata>
<g transform="translate(0.000000,176.000000) scale(0.100000,-0.100000)"
fill="#000000" stroke="none">
<path d="M1376 1577 c-26 -29 -113 -118 -192 -199 l-144 -146 0 -387 c0 -223
4 -385 9 -383 8 3 125 110 309 283 35 33 68 61 73 63 11 4 12 822 2 822 -5 -1
-30 -24 -57 -53z"/>
<path d="M437 1354 c-1 -1 -33 -4 -72 -7 -131 -10 -284 -59 -335 -107 l-30
-28 0 -525 0 -524 25 -27 c31 -34 57 -33 139 4 220 100 457 77 664 -63 l53
-36 48 34 c195 140 447 165 667 65 81 -36 107 -37 139 -5 l25 24 0 523 c0 463
-2 526 -16 546 -14 20 -112 72 -135 72 -5 0 -9 -217 -9 -491 0 -464 -1 -491
-17 -484 -64 25 -196 44 -283 41 -136 -5 -230 -29 -352 -91 l-68 -34 -2 497
-3 497 -65 32 c-81 40 -191 70 -293 81 -42 4 -78 7 -80 6z m143 -179 c14 -2
50 -13 80 -23 l55 -19 3 -408 c2 -364 1 -407 -13 -401 -143 55 -387 55 -530 0
-14 -6 -15 37 -13 401 l3 408 40 14 c107 38 266 50 375 28z"/>
</g>
</svg>
