<svg version="1.0" xmlns="http://www.w3.org/2000/svg" width="234.667" height="234.667" viewBox="0 0 176 176"><path d="M137.6 18.3c-2.6 2.9-11.3 11.8-19.2 19.9L104 52.8v38.7c0 22.3.4 38.5.9 38.3.8-.3 12.5-11 30.9-28.3 3.5-3.3 6.8-6.1 7.3-6.3 1.1-.4 1.2-82.2.2-82.2-.5.1-3 2.4-5.7 5.3z"/><path d="M43.7 40.6c-.1.1-3.3.4-7.2.7C23.4 42.3 8.1 47.2 3 52l-3 2.8v104.9l2.5 2.7c3.1 3.4 5.7 3.3 13.9-.4 22-10 45.7-7.7 66.4 6.3l5.3 3.6 4.8-3.4c19.5-14 44.7-16.5 66.7-6.5 8.1 3.6 10.7 3.7 13.9.5l2.5-2.4v-52.3c0-46.3-.2-52.6-1.6-54.6-1.4-2-11.2-7.2-13.5-7.2-.5 0-.9 21.7-.9 49.1 0 46.4-.1 49.1-1.7 48.4-6.4-2.5-19.6-4.4-28.3-4.1-13.6.5-23 2.9-35.2 9.1l-6.8 3.4-.2-49.7-.3-49.7-6.5-3.2c-8.1-4-19.1-7-29.3-8.1-4.2-.4-7.8-.7-8-.6zM58 58.5c1.4.2 5 1.3 8 2.3l5.5 1.9.3 40.8c.2 36.4.1 40.7-1.3 40.1-14.3-5.5-38.7-5.5-53 0-1.4.6-1.5-3.7-1.3-40.1l.3-40.8 4-1.4c10.7-3.8 26.6-5 37.5-2.8z"/></svg>