<svg aria-hidden="true" style="width:0;height:0;position:absolute;overflow:hidden" xmlns="http://www.w3.org/2000/svg"><defs><symbol id="scroll-up" viewBox="0 0 32 32"><path d="M16 1.5C7.997 1.5 1.5 7.997 1.5 16S7.997 30.5 16 30.5 30.5 24.003 30.5 16 24.003 1.5 16 1.5zm0 1c7.451 0 13.5 6.049 13.5 13.5S23.451 29.5 16 29.5 2.5 23.451 2.5 16 8.549 2.5 16 2.5z"/><path d="m16 13.707-5.646 5.647a.502.502 0 0 1-.708-.708l6-6a.502.502 0 0 1 .708 0l6 6a.502.502 0 0 1-.708.708L16 13.707z"/></symbol></defs></svg>